<svg width="60" height="59" viewBox="0 0 60 59" fill="none" xmlns="http://www.w3.org/2000/svg">
<circle cx="30" cy="29.5" r="29.5" transform="rotate(90 30 29.5)" fill="#0A8935"/>
<path d="M30.1429 34.9609C30.2768 34.9609 30.4275 34.894 30.5279 34.7935L38.3292 26.9922C38.4297 26.8917 38.4967 26.7411 38.4967 26.6071C38.4967 26.4732 38.4297 26.3225 38.3292 26.2221L37.4922 25.385C37.3917 25.2846 37.2411 25.2176 37.1071 25.2176C36.9732 25.2176 36.8225 25.2846 36.7221 25.385L30.1429 31.9643L23.5636 25.385C23.4632 25.2846 23.3125 25.2176 23.1786 25.2176C23.0279 25.2176 22.894 25.2846 22.7935 25.385L21.9565 26.2221C21.856 26.3225 21.7891 26.4732 21.7891 26.6071C21.7891 26.7411 21.856 26.8917 21.9565 26.9922L29.7578 34.7935C29.8583 34.894 30.0089 34.9609 30.1429 34.9609Z" fill="white"/>
</svg>
