<svg width="59" height="36" viewBox="0 0 59 36" fill="none" xmlns="http://www.w3.org/2000/svg">
<path fill-rule="evenodd" clip-rule="evenodd" d="M48.6733 13.3516C54.155 14.173 58.3587 18.9018 58.3587 24.6124C58.3587 30.9013 53.2606 35.9995 46.9717 35.9995H31.6271C31.6019 35.9996 31.5768 35.9996 31.5516 35.9996C31.5265 35.9996 31.5014 35.9996 31.4762 35.9995H11.3871C5.09816 35.9995 0 30.9013 0 24.6124C0 18.3235 5.09816 13.2253 11.3871 13.2253H14.4663C16.6209 5.82376 23.4546 0.415039 31.5516 0.415039C39.6947 0.415039 46.56 5.88537 48.6733 13.3516Z" fill="#5236FF"/>
<mask id="mask0_1_3722" style="mask-type:alpha" maskUnits="userSpaceOnUse" x="0" y="0" width="59" height="36">
<path fill-rule="evenodd" clip-rule="evenodd" d="M48.6733 13.3521C54.155 14.1735 58.3587 18.9023 58.3587 24.6129C58.3587 30.9018 53.2606 36 46.9717 36H31.6271C31.6019 36.0001 31.5768 36.0001 31.5516 36.0001C31.5265 36.0001 31.5014 36.0001 31.4762 36H11.3871C5.09816 36 0 30.9018 0 24.6129C0 18.324 5.09816 13.2258 11.3871 13.2258H14.4663C16.6209 5.82425 23.4546 0.415527 31.5516 0.415527C39.6947 0.415527 46.56 5.88585 48.6733 13.3521Z" fill="#5236FF"/>
</mask>
<g mask="url(#mask0_1_3722)">
<path d="M27.6139 10.7564L-2.37207 40.7446L62.1546 40.1758L32.7231 10.6514" fill="#644AFF"/>
</g>
<path d="M30.2205 30.8859C29.1275 30.8859 28.2412 29.9931 28.2412 28.8913V10.9501C28.2416 9.84838 29.1275 8.95557 30.2205 8.95557C31.3135 8.95557 32.1998 9.84838 32.1998 10.9501V28.8913C32.1998 29.9927 31.3138 30.8859 30.2205 30.8859Z" fill="white"/>
<path d="M38.5502 19.3441C39.323 18.5653 39.323 17.3022 38.5502 16.5234L31.62 9.53969C30.8471 8.76086 29.5937 8.76086 28.8209 9.53969C28.048 10.3185 28.048 11.5816 28.8209 12.3604L35.7511 19.3441C36.5243 20.123 37.7773 20.123 38.5502 19.3441Z" fill="white"/>
<path d="M21.8912 19.3441C21.1183 18.5653 21.1183 17.3022 21.8912 16.5234L28.8214 9.53969C29.5942 8.76086 30.8476 8.76086 31.6205 9.53969C32.3933 10.3185 32.3933 11.5816 31.6205 12.3604L24.6903 19.3441C23.9171 20.123 22.664 20.123 21.8912 19.3441Z" fill="white"/>
</svg>
