<svg width="60" height="59" viewBox="0 0 60 59" fill="none" xmlns="http://www.w3.org/2000/svg">
<circle cx="30" cy="29.5" r="29.5" fill="#0A8935"/>
<path d="M35.4609 29.3571C35.4609 29.2232 35.394 29.0725 35.2935 28.9721L27.4922 21.1708C27.3917 21.0703 27.2411 21.0033 27.1071 21.0033C26.9732 21.0033 26.8225 21.0703 26.7221 21.1708L25.885 22.0078C25.7846 22.1083 25.7176 22.2589 25.7176 22.3929C25.7176 22.5268 25.7846 22.6775 25.885 22.7779L32.4643 29.3571L25.885 35.9364C25.7846 36.0368 25.7176 36.1875 25.7176 36.3214C25.7176 36.4721 25.7846 36.606 25.885 36.7065L26.7221 37.5435C26.8225 37.644 26.9732 37.7109 27.1071 37.7109C27.2411 37.7109 27.3917 37.644 27.4922 37.5435L35.2935 29.7422C35.394 29.6417 35.4609 29.4911 35.4609 29.3571Z" fill="white"/>
</svg>
