<svg width="204" height="47" viewBox="0 0 204 47" fill="none" xmlns="http://www.w3.org/2000/svg">
<rect x="0.791748" y="0.956665" width="48.8342" height="45.5473" fill="#00B67A"/>
<path d="M3.60889 18.5604L17.4008 28.6849L12.2288 44.6258L25.5897 35.1474L39.5971 44.6258L34.4252 28.6849L48.217 18.5604H31.1927L25.5897 2.83496L20.4178 18.5604H3.60889Z" fill="white"/>
<rect x="51.9741" y="0.956665" width="48.8342" height="45.5473" fill="#00B67A"/>
<path d="M54.7913 18.5604L68.5832 28.6849L63.4112 44.6258L76.7721 35.1474L90.7795 44.6258L85.6075 28.6849L99.3994 18.5604H82.3751L76.7721 2.83496L71.6001 18.5604H54.7913Z" fill="white"/>
<rect x="103.156" y="0.956665" width="48.8342" height="45.5473" fill="#00B67A"/>
<path d="M105.973 18.5604L119.765 28.6849L114.593 44.6258L127.954 35.1474L141.961 44.6258L136.789 28.6849L150.581 18.5604H133.557L127.954 2.83496L122.782 18.5604H105.973Z" fill="white"/>
<rect x="154.338" y="0.956665" width="48.8342" height="45.5473" fill="#00B67A"/>
<path d="M157.155 18.5604L170.947 28.6849L165.775 44.6258L179.136 35.1474L193.143 44.6258L187.971 28.6849L201.763 18.5604H184.739L179.136 2.83496L173.964 18.5604H157.155Z" fill="white"/>
</svg>
